<svg width="489.000000" height="330.000000" viewBox="0 0 489 330" fill="none" xmlns="http://www.w3.org/2000/svg" xmlns:xlink="http://www.w3.org/1999/xlink">
	<desc>
			Created with Pixso.
	</desc>
	<defs>
		<filter id="filter_2203_119_dd" x="0.000000" y="0.000000" width="489.000000" height="330.000000" filterUnits="userSpaceOnUse" color-interpolation-filters="sRGB">
			<feFlood flood-opacity="0" result="BackgroundImageFix"/>
			<feColorMatrix in="SourceAlpha" type="matrix" values="0 0 0 0 0 0 0 0 0 0 0 0 0 0 0 0 0 0 127 0" result="hardAlpha"/>
			<feOffset dx="0" dy="4"/>
			<feGaussianBlur stdDeviation="1.33333"/>
			<feComposite in2="hardAlpha" operator="out" k2="-1" k3="1"/>
			<feColorMatrix type="matrix" values="0 0 0 0 0 0 0 0 0 0 0 0 0 0 0 0 0 0 0.25 0"/>
			<feBlend mode="normal" in2="BackgroundImageFix" result="effect_dropShadow_1"/>
			<feBlend mode="normal" in="SourceGraphic" in2="effect_dropShadow_1" result="shape"/>
		</filter>
		<clipPath id="clip2203_119">
			<rect id="undraw_gaming_re_cma2 1" width="481.000000" height="322.000000" transform="translate(4.000000 0.000000)" fill="white" fill-opacity="0"/>
		</clipPath>
	</defs>
	<g filter="url(#filter_2203_119_dd)">
		<rect id="undraw_gaming_re_cma2 1" width="481.000000" height="322.000000" transform="translate(4.000000 0.000000)" fill="#FFFFFF" fill-opacity="0"/>
		<g clip-path="url(#clip2203_119)">
			<path id="Vector" d="M472.717 311.028L467.966 313.057L457.897 295.651L464.909 292.656L472.717 311.028Z" fill="#FFB6B6" fill-opacity="1.000000" fill-rule="nonzero"/>
			<path id="Vector" d="M433.462 315.535L428.299 315.535L425.842 295.564L433.463 295.564L433.462 315.535Z" fill="#FFB6B6" fill-opacity="1.000000" fill-rule="nonzero"/>
			<path id="Vector" d="M433.644 320.936L417.766 320.936L417.766 320.734C417.766 319.091 418.417 317.515 419.576 316.353C420.735 315.19 422.307 314.538 423.946 314.537L423.946 314.537L426.847 312.331L432.258 314.538L433.644 314.538L433.644 320.936Z" fill="#03183F" fill-opacity="1.000000" fill-rule="nonzero"/>
			<path id="Vector" d="M475.605 314.486L460.998 320.728L460.919 320.542C460.276 319.03 460.259 317.324 460.871 315.799C461.483 314.275 462.673 313.056 464.181 312.412L464.182 312.411L465.987 309.241L471.828 309.144L473.103 308.599L475.605 314.486Z" fill="#03183F" fill-opacity="1.000000" fill-rule="nonzero"/>
			<path id="Vector" d="M428.397 197.34L420.55 245.255L422.685 252.395L419.883 257.451L423.998 301.862L422.328 305.55L426.995 308.436L436.493 308.436L436.997 268.231L439.343 262.328L439.343 259.075L444.119 234.559L444.998 262.602L446.388 268.514L445.221 272.724L446.745 275.673L459.813 303.808L470.463 303.808L469.639 297.446C471.547 296.477 466.774 293.646 466.316 291.551L467.884 288.013L466.316 281.33L464.878 268.271L466.394 240.707L465.681 203.588C462.105 198.781 458.138 195.073 453.222 194.035L428.397 197.34Z" fill="#03183F" fill-opacity="1.000000" fill-rule="nonzero"/>
			<path id="ab6171fa-7d69-4734-b81c-8dff60f9761b" d="M458.27 123.448C458.27 129.409 453.452 134.24 447.508 134.24C441.564 134.24 436.745 129.409 436.745 123.448C436.745 117.488 441.564 112.656 447.508 112.656C453.452 112.656 458.27 117.488 458.27 123.448Z" fill="#FFB6B6" fill-opacity="1.000000" fill-rule="evenodd"/>
			<path id="Vector" d="M403.134 208.661C402.999 208.055 403 207.427 403.134 206.821C403.268 206.215 403.533 205.645 403.91 205.153C404.288 204.661 404.768 204.258 405.318 203.972C405.867 203.686 406.473 203.524 407.091 203.498L411.427 189.046L416.439 195.066L411.554 207.867C411.528 208.912 411.121 209.912 410.41 210.676C409.699 211.44 408.733 211.916 407.695 212.014C406.657 212.112 405.62 211.825 404.779 211.207C403.938 210.589 403.353 209.683 403.134 208.661Z" fill="#FFB6B6" fill-opacity="1.000000" fill-rule="nonzero"/>
			<path id="f348f81f-b961-4ae4-bc6b-758f6acfb12a" d="M431.258 149.258L429.315 145.698L426.811 146.536C426.811 146.536 424.047 148.325 420.177 155.076C418.387 158.199 414.517 178.223 414.517 178.223L405.473 202.237L414.694 203.801L422.387 184.01L431.307 165.07L431.258 149.258Z" fill="#9C0332" fill-opacity="1.000000" fill-rule="nonzero"/>
			<path id="Vector" d="M447.109 197.189C454.687 197.189 462.333 198.685 465.464 204.034C465.382 202.871 465.177 200.854 464.964 199.004L464.18 194.033L464.974 189.475L466.023 188.423L464.144 186.539L465.426 177.025L469.657 154.612C469.989 152.848 469.73 151.025 468.921 149.424C468.113 147.823 466.799 146.536 465.185 145.761L461.119 143.801L454.529 137.671L442.608 137.582L438.719 142.652L428.48 146.139L430.199 181.788L429.073 184.423C429.325 184.656 429.858 185.153 430.146 185.473C430.554 185.925 430.034 188.256 429.688 189.605L429.212 193.198L430.71 194.271L428.763 196.578L428.374 199.506C430.307 199.047 438.666 197.189 447.109 197.189Z" fill="#9C0332" fill-opacity="1.000000" fill-rule="nonzero"/>
			<path id="Vector" d="M450.261 133.712C450.307 133.61 450.353 133.508 450.399 133.406C450.381 133.407 450.364 133.409 450.346 133.41L450.261 133.712Z" fill="#03183F" fill-opacity="1.000000" fill-rule="nonzero"/>
			<path id="Vector" d="M458.57 113.147C458.059 112.664 457.394 112.376 456.693 112.333C455.997 112.356 455.291 112.986 455.436 113.669C454.157 111.4 452.123 109.654 449.689 108.739C447.255 107.824 444.577 107.798 442.126 108.665C440.396 109.277 438.7 110.501 438.302 112.297C438.264 112.768 438.123 113.225 437.891 113.637C437.69 113.857 437.429 114.014 437.141 114.087C436.852 114.16 436.548 114.147 436.267 114.05L436.25 114.045C436.154 114.012 436.05 114.009 435.951 114.035C435.853 114.062 435.765 114.118 435.699 114.196C435.633 114.273 435.592 114.369 435.58 114.47C435.569 114.572 435.588 114.674 435.635 114.765L436.125 115.68C435.508 115.818 434.867 115.804 434.256 115.64C434.155 115.613 434.048 115.619 433.95 115.656C433.851 115.692 433.767 115.759 433.708 115.846C433.649 115.932 433.618 116.036 433.619 116.141C433.621 116.246 433.655 116.348 433.717 116.433C434.53 117.549 435.592 118.459 436.818 119.091C438.044 119.722 439.4 120.059 440.778 120.072C442.734 120.06 444.709 119.385 446.613 119.836C447.349 120.01 448.037 120.347 448.626 120.823C449.215 121.299 449.691 121.901 450.018 122.585C450.344 123.269 450.514 124.018 450.515 124.777C450.516 125.535 450.347 126.285 450.021 126.969C450.606 126.328 451.736 126.48 452.334 127.109C452.61 127.445 452.813 127.835 452.932 128.253C453.051 128.672 453.084 129.111 453.027 129.542C452.867 130.864 452.476 132.148 451.871 133.333C454.183 133.262 456.418 132.48 458.273 131.095C460.129 129.709 461.516 127.786 462.246 125.584C462.977 123.383 463.016 121.01 462.358 118.786C461.701 116.562 460.378 114.594 458.57 113.147L458.57 113.147Z" fill="#03183F" fill-opacity="1.000000" fill-rule="nonzero"/>
			<path id="Vector" d="M137.494 46.0236C137.494 60.8419 125.514 72.8544 110.736 72.8544C95.9581 72.8544 83.9782 60.8419 83.9782 46.0236C83.9782 31.2053 95.9581 19.1926 110.736 19.1926C125.514 19.1926 137.494 31.2053 137.494 46.0236Z" fill="#9C0332" fill-opacity="1.000000" fill-rule="evenodd"/>
			<path id="Vector" d="M35.5305 125.838C22.1042 96.0587 22.5993 58.3125 43.4363 33.1838C50.4075 68.0289 69.4456 99.2783 97.1823 121.403C107.91 129.897 120.724 138.224 123.654 151.611C125.478 159.941 122.893 168.752 118.425 176.008C113.956 183.265 107.727 189.234 101.569 195.116L100.878 197.129C74.0817 178.526 48.9567 155.616 35.5305 125.838Z" fill="#3A6569" fill-opacity="1.000000" fill-rule="nonzero"/>
			<path id="Vector" d="M44.0162 33.5469C39.2209 59.8772 42.7833 87.9141 54.4391 112.038C56.959 117.253 59.968 122.324 63.9965 126.518C68.0269 130.715 72.8458 133.357 78.3892 134.98C83.4571 136.463 88.8124 137.392 93.4323 140.086C98.3019 142.924 101.324 147.688 102.501 153.15C103.942 159.833 102.901 166.637 101.653 173.255C100.268 180.603 98.7125 188.213 100.72 195.599C100.964 196.494 99.5645 196.821 99.3216 195.927C95.8282 183.076 102.62 170.4 101.671 157.48C101.228 151.451 98.9702 145.519 93.8147 142.026C89.3065 138.971 83.7849 138.008 78.6407 136.55C73.2391 135.02 68.3881 132.681 64.2603 128.803C60.0377 124.835 56.8247 119.872 54.1829 114.744C48.2248 103.179 44.2972 90.4374 42.2192 77.6088C39.8297 62.8641 39.9732 47.8181 42.6436 33.1219C42.8092 32.2123 44.1808 32.6434 44.0162 33.5469L44.0162 33.5469Z" fill="#FFFFFF" fill-opacity="1.000000" fill-rule="nonzero"/>
			<path id="Vector" d="M50.2378 104.397C45.8881 105.795 41.1845 105.597 36.967 103.838C32.7495 102.079 29.2927 98.8748 27.2141 94.7966C26.7963 93.9699 28.0577 93.2801 28.476 94.1078C30.4047 97.9091 33.625 100.894 37.5557 102.523C41.4863 104.153 45.8685 104.32 49.9111 102.994C50.79 102.707 51.1116 104.111 50.2378 104.397L50.2378 104.397Z" fill="#FFFFFF" fill-opacity="1.000000" fill-rule="nonzero"/>
			<path id="Vector" d="M75.7209 134.567C80.0673 126.28 81.1393 116.656 78.7231 107.612C78.483 106.716 79.8821 106.39 80.1219 107.284C82.6187 116.7 81.4828 126.714 76.9409 135.327C76.5074 136.148 75.2897 135.383 75.7208 134.567L75.7209 134.567Z" fill="#FFFFFF" fill-opacity="1.000000" fill-rule="nonzero"/>
			<path id="Vector" d="M41.6763 63.3322C43.4716 63.143 45.1921 62.5096 46.683 61.4889C48.174 60.4683 49.3887 59.0922 50.2182 57.4844C50.6411 56.6587 51.8584 57.4243 51.4383 58.2447C50.5135 60.0167 49.1701 61.5347 47.5254 62.6661C45.8806 63.7974 43.9846 64.5077 42.0029 64.7348C41.8179 64.7719 41.6257 64.737 41.4655 64.6371C41.3052 64.5373 41.1889 64.38 41.1402 64.1973C41.0978 64.0114 41.1304 63.8162 41.2308 63.6542C41.3312 63.4922 41.4913 63.3765 41.6763 63.3322Z" fill="#FFFFFF" fill-opacity="1.000000" fill-rule="nonzero"/>
			<path id="Vector" d="M153.785 33.4753C153.536 33.9985 153.286 34.5216 153.043 35.0555C149.725 42.1061 146.985 49.4154 144.848 56.9111C144.674 57.488 144.506 58.0753 144.349 58.6559C139.393 76.7698 137.834 95.6488 139.752 114.333C140.521 121.767 141.854 129.132 143.738 136.364C146.341 146.351 149.955 156.971 149.14 166.943C149.066 167.985 148.928 169.021 148.727 170.045L103.38 197.818C103.246 197.829 103.117 197.851 102.982 197.863L101.222 199.055C101.099 198.688 100.979 198.306 100.856 197.94C100.783 197.728 100.721 197.51 100.649 197.297C100.604 197.154 100.559 197.01 100.51 196.884C100.495 196.836 100.481 196.788 100.472 196.751C100.423 196.624 100.391 196.501 100.349 196.384C99.6726 194.249 99.0104 192.104 98.3621 189.952C98.3557 189.941 98.3557 189.941 98.3595 189.925C93.4609 173.51 89.8859 156.54 88.9931 139.566C88.9664 139.055 88.9329 138.535 88.9269 138.011C88.5669 130.358 88.8312 122.688 89.7174 115.078C90.216 110.912 90.9246 106.775 91.8404 102.681C94.2271 92.108 98.2573 81.9774 103.784 72.6603C114.803 54.0885 131.623 39.2571 152.208 33.8713C152.735 33.7339 153.252 33.6024 153.785 33.4753Z" fill="#3A6569" fill-opacity="1.000000" fill-rule="nonzero"/>
			<path id="Vector" d="M154.035 34.1149C134.396 52.2431 120.406 76.7797 115.228 103.078C114.109 108.763 113.467 114.628 114.165 120.41C114.863 126.194 117.125 131.212 120.576 135.855C123.732 140.099 127.45 144.074 129.521 149.013C131.705 154.22 131.258 159.847 128.918 164.919C126.056 171.125 121.14 175.929 116.17 180.46C110.652 185.49 104.84 190.628 102.008 197.738C101.665 198.599 100.352 198.015 100.695 197.155C105.622 184.785 118.656 178.765 125.656 167.875C128.922 162.794 130.681 156.695 128.662 150.793C126.896 145.632 123.066 141.53 119.834 137.26C116.44 132.777 113.971 127.982 113.004 122.393C112.015 116.676 112.429 110.773 113.399 105.084C115.586 92.2531 120.1 79.7084 126.144 68.2109C133.089 54.9955 142.238 43.0688 153.194 32.9468C153.872 32.3206 154.709 33.4928 154.035 34.1149L154.035 34.1149Z" fill="#FFFFFF" fill-opacity="1.000000" fill-rule="nonzero"/>
			<path id="Vector" d="M116.462 94.4406C112.15 92.9307 108.513 89.933 106.201 85.9827C103.89 82.0324 103.054 77.3868 103.843 72.8756C104.006 71.9633 105.427 72.1741 105.264 73.0876C104.522 77.287 105.301 81.6144 107.461 85.2885C109.621 88.9625 113.019 91.7414 117.043 93.1235C117.917 93.4249 117.331 94.7402 116.462 94.4406L116.462 94.4406Z" fill="#FFFFFF" fill-opacity="1.000000" fill-rule="nonzero"/>
			<path id="Vector" d="M118.694 133.914C127.139 129.922 133.774 122.884 137.275 114.205C137.621 113.344 138.935 113.928 138.589 114.788C134.929 123.813 128.009 131.122 119.211 135.258C118.372 135.651 117.859 134.305 118.694 133.914L118.694 133.914Z" fill="#FFFFFF" fill-opacity="1.000000" fill-rule="nonzero"/>
			<path id="Vector" d="M134.283 56.4841C135.83 57.4169 137.584 57.9498 139.387 58.0349C141.19 58.1201 142.986 57.7548 144.614 56.9719C145.447 56.5678 145.96 57.914 145.132 58.3154C143.329 59.172 141.345 59.5731 139.353 59.4834C137.36 59.3937 135.42 58.8162 133.701 57.8011C133.531 57.7191 133.399 57.5753 133.331 57.3987C133.263 57.2223 133.264 57.0265 133.335 56.8511C133.413 56.6771 133.556 56.541 133.734 56.4722C133.911 56.4035 134.108 56.4077 134.283 56.4841Z" fill="#FFFFFF" fill-opacity="1.000000" fill-rule="nonzero"/>
			<path id="Vector" d="M261.137 93.2194C247.71 63.4405 248.205 25.6943 269.042 0.565674C276.014 35.4107 295.052 66.6601 322.788 88.785C333.516 97.2787 346.33 105.606 349.261 118.993C351.084 127.323 348.499 136.134 344.031 143.39C339.562 150.646 333.333 156.615 327.175 162.498L326.484 164.511C299.688 145.908 274.563 122.998 261.137 93.2194Z" fill="#3A6569" fill-opacity="1.000000" fill-rule="nonzero"/>
			<path id="Vector" d="M269.622 0.929016C264.827 27.2593 268.389 55.2962 280.045 79.4197C282.565 84.6351 285.574 89.7058 289.603 93.9005C293.633 98.097 298.452 100.739 303.995 102.362C309.063 103.845 314.418 104.775 319.038 107.468C323.908 110.306 326.93 115.07 328.107 120.532C329.548 127.215 328.507 134.019 327.259 140.637C325.874 147.985 324.318 155.595 326.326 162.982C326.57 163.877 325.17 164.203 324.928 163.309C321.434 150.458 328.226 137.783 327.277 124.862C326.834 118.833 324.576 112.901 319.421 109.408C314.912 106.353 309.391 105.39 304.247 103.932C298.845 102.402 293.994 100.063 289.866 96.1849C285.644 92.2174 282.431 87.2539 279.789 82.126C273.831 70.5612 269.903 57.8195 267.825 44.991C265.436 30.2462 265.579 15.2002 268.25 0.503967C268.415 -0.405579 269.787 0.0254517 269.622 0.929016L269.622 0.929016Z" fill="#FFFFFF" fill-opacity="1.000000" fill-rule="nonzero"/>
			<path id="Vector" d="M275.844 71.7789C271.494 73.1767 266.791 72.9786 262.573 71.2201C258.356 69.4615 254.899 66.2569 252.82 62.1786C252.402 61.352 253.664 60.6622 254.082 61.4899C256.011 65.2912 259.231 68.2759 263.162 69.9055C267.093 71.535 271.475 71.702 275.517 70.3763C276.396 70.0892 276.718 71.4935 275.844 71.7789Z" fill="#FFFFFF" fill-opacity="1.000000" fill-rule="nonzero"/>
			<path id="Vector" d="M301.327 101.949C305.673 93.6624 306.745 84.0378 304.329 74.9941C304.089 74.0983 305.488 73.7719 305.728 74.6666C308.225 84.0824 307.089 94.096 302.547 102.709C302.113 103.53 300.896 102.765 301.327 101.949L301.327 101.949Z" fill="#FFFFFF" fill-opacity="1.000000" fill-rule="nonzero"/>
			<path id="Vector" d="M267.282 30.714C269.078 30.5248 270.798 29.8914 272.289 28.8708C273.78 27.8501 274.995 26.4741 275.824 24.8663C276.247 24.0405 277.464 24.8061 277.044 25.6265C276.12 27.3986 274.776 28.9166 273.131 30.0479C271.487 31.1793 269.591 31.8895 267.609 32.1166C267.424 32.1537 267.232 32.1188 267.072 32.019C266.911 31.9191 266.795 31.7618 266.746 31.5791C266.704 31.3932 266.737 31.198 266.837 31.036C266.937 30.874 267.097 30.7583 267.282 30.7141L267.282 30.714Z" fill="#FFFFFF" fill-opacity="1.000000" fill-rule="nonzero"/>
			<path id="Vector" d="M379.391 0.857422C379.142 1.38055 378.892 1.90369 378.649 2.43756C375.331 9.48822 372.591 16.7975 370.454 24.2932C370.28 24.8701 370.112 25.4573 369.955 26.0381C364.999 44.1519 363.44 63.0309 365.358 81.7153C366.127 89.1495 367.46 96.5143 369.344 103.746C371.947 113.733 375.561 124.353 374.746 134.326C374.672 135.367 374.534 136.403 374.333 137.427L328.986 165.2C328.852 165.211 328.723 165.233 328.588 165.245L326.828 166.437C326.705 166.071 326.585 165.688 326.462 165.322C326.389 165.11 326.327 164.892 326.255 164.68C326.21 164.536 326.165 164.392 326.116 164.266C326.101 164.218 326.087 164.17 326.078 164.133C326.029 164.006 325.997 163.883 325.955 163.766C325.279 161.631 324.616 159.487 323.968 157.334C323.962 157.323 323.962 157.323 323.966 157.307C319.067 140.892 315.492 123.922 314.599 106.948C314.572 106.438 314.539 105.917 314.533 105.393C314.173 97.74 314.437 90.0699 315.323 82.4598C315.822 78.2943 316.531 74.1567 317.446 70.063C319.833 59.4901 323.863 49.3594 329.39 40.0424C340.409 21.4706 357.229 6.63922 377.814 1.25342C378.341 1.11603 378.858 0.984436 379.391 0.857422Z" fill="#3A6569" fill-opacity="1.000000" fill-rule="nonzero"/>
			<path id="Vector" d="M379.641 1.49695C360.003 19.6252 346.013 44.1617 340.835 70.4597C339.715 76.1453 339.073 82.0105 339.771 87.7917C340.469 93.5756 342.731 98.5941 346.182 103.237C349.338 107.481 353.056 111.456 355.128 116.395C357.311 121.602 356.864 127.229 354.525 132.301C351.662 138.507 346.746 143.311 341.776 147.842C336.258 152.872 330.447 158.01 327.615 165.12C327.271 165.981 325.958 165.397 326.301 164.537C331.228 152.167 344.262 146.147 351.262 135.257C354.528 130.176 356.287 124.077 354.268 118.175C352.503 113.014 348.672 108.912 345.44 104.643C342.046 100.159 339.577 95.3638 338.61 89.775C337.621 84.058 338.036 78.1552 339.005 72.4659C341.192 59.6351 345.706 47.0905 351.75 35.593C358.695 22.3776 367.844 10.4509 378.8 0.328857C379.478 -0.297363 380.315 0.874878 379.641 1.49701L379.641 1.49695Z" fill="#FFFFFF" fill-opacity="1.000000" fill-rule="nonzero"/>
			<path id="Vector" d="M342.068 61.8226C337.756 60.3127 334.119 57.315 331.807 53.3647C329.496 49.4144 328.66 44.7689 329.449 40.2577C329.612 39.3454 331.033 39.5562 330.87 40.4697C330.128 44.6691 330.907 48.9965 333.067 52.6705C335.227 56.3446 338.625 59.1235 342.649 60.5056C343.523 60.8069 342.937 62.1223 342.068 61.8226L342.068 61.8226Z" fill="#FFFFFF" fill-opacity="1.000000" fill-rule="nonzero"/>
			<path id="Vector" d="M344.3 101.296C352.745 97.3038 359.38 90.2663 362.881 81.5867C363.227 80.7265 364.541 81.3105 364.195 82.1697C360.535 91.195 353.615 98.5046 344.817 102.64C343.979 103.033 343.465 101.687 344.3 101.296L344.3 101.296Z" fill="#FFFFFF" fill-opacity="1.000000" fill-rule="nonzero"/>
			<path id="Vector" d="M359.889 23.8659C361.436 24.7987 363.19 25.3316 364.993 25.4167C366.796 25.5019 368.592 25.1366 370.22 24.3537C371.054 23.9496 371.566 25.2958 370.738 25.6972C368.935 26.5538 366.951 26.9549 364.959 26.8652C362.966 26.7756 361.026 26.1981 359.307 25.183C359.137 25.101 359.005 24.957 358.937 24.7806C358.869 24.6041 358.87 24.4083 358.941 24.233C359.019 24.059 359.162 23.9228 359.34 23.8541C359.517 23.7853 359.714 23.7896 359.889 23.8659Z" fill="#FFFFFF" fill-opacity="1.000000" fill-rule="nonzero"/>
			<path id="Vector" d="M90.0118 314.07L94.9682 317.919L114.239 321.271L135.658 267.883C135.658 267.883 148.774 226.738 185.501 235.155L303.551 233.051C303.551 233.051 339.796 229.326 345.786 246.466C346.921 249.713 377.528 321.435 377.528 321.435L398.988 318.398L396.416 257.251L345.447 138.616L256.855 133.07L165.564 139.406L90.0118 314.07Z" fill="#03183F" fill-opacity="1.000000" fill-rule="nonzero"/>
			<path id="Vector" d="M222.228 204.642C222.228 223.528 206.959 238.838 188.124 238.838C169.29 238.838 154.021 223.528 154.021 204.642C154.021 185.755 169.29 170.445 188.124 170.445C206.959 170.445 222.228 185.755 222.228 204.642Z" fill="#E6E6E6" fill-opacity="1.000000" fill-rule="evenodd"/>
			<path id="Vector" d="M336.605 204.642C336.605 223.528 321.336 238.838 302.501 238.838C283.667 238.838 268.398 223.528 268.398 204.642C268.398 185.755 283.667 170.445 302.501 170.445C321.336 170.445 336.605 185.755 336.605 204.642Z" fill="#E6E6E6" fill-opacity="1.000000" fill-rule="evenodd"/>
			<path id="Vector" d="M148.25 92.5831L162.292 89.8222C162.292 89.8222 268.014 74.6959 334.838 92.5831L329.784 106.788L152.972 105.736L148.25 92.5831Z" fill="#E6E6E6" fill-opacity="1.000000" fill-rule="nonzero"/>
			<path id="Vector" d="M290.795 165.974L201.073 165.974C190.179 165.974 180.764 158.41 178.686 147.988L168.867 98.7434C168.649 97.6688 168.658 96.5605 168.892 95.4894C169.126 94.4183 169.58 93.4079 170.226 92.5228C170.901 91.5941 171.759 90.8145 172.747 90.2324C173.735 89.6502 174.832 89.278 175.97 89.1388C223.291 83.249 270.149 83.239 315.243 89.1083C316.364 89.246 317.446 89.6138 318.42 90.1886C319.394 90.7635 320.239 91.5332 320.904 92.4498C321.545 93.3222 322 94.3176 322.242 95.374C322.483 96.4305 322.504 97.5253 322.305 98.5906L313.241 147.684C311.285 158.282 301.845 165.974 290.795 165.974Z" fill="#9C0332" fill-opacity="1.000000" fill-rule="nonzero"/>
			<path id="Vector" d="M108.338 100.6L108.729 93.5533C108.79 92.4554 109.115 91.3887 109.677 90.4445C110.239 89.5002 111.02 88.7065 111.955 88.1313C117.62 84.6464 132.901 76.9738 152.403 80.9958C153.772 81.28 155.021 81.9802 155.98 83.0011C156.938 84.022 157.56 85.3142 157.761 86.702L158.283 90.3687L108.338 100.6Z" fill="#03183F" fill-opacity="1.000000" fill-rule="nonzero"/>
			<path id="Vector" d="M383.337 100.6L333.392 90.3687L334.231 84.4778C334.328 83.7822 334.63 83.1315 335.098 82.6094C335.567 82.0872 336.18 81.7175 336.86 81.5479C359.35 75.8884 376.564 85.9387 381.305 89.1539C381.755 89.4601 382.129 89.866 382.397 90.3401C382.666 90.8142 382.822 91.3439 382.854 91.8882L383.337 100.6Z" fill="#03183F" fill-opacity="1.000000" fill-rule="nonzero"/>
			<path id="Vector" d="M92.4802 318.665C91.2767 318.678 90.0946 318.345 89.0742 317.704C75.7012 309.874 67.364 295.525 64.313 275.066C61.793 258.168 62.8453 236.957 67.4408 212.023C75.5882 167.817 92.6644 123.63 99.6281 106.685C100.551 104.448 101.984 102.46 103.813 100.88C105.642 99.3008 107.816 98.1743 110.158 97.5913C124.514 94.0507 149.575 88.1111 156.12 88.1111C165.089 88.1111 169.942 96.5771 169.99 96.6627L170.017 96.7326L177.893 130.982L177.893 131.476C182.239 146.219 179.01 156.868 175.534 163.206C171.761 170.086 166.879 173.521 166.831 173.555C159.165 179.407 146.675 198.258 134.246 222.747C121.329 248.195 111.754 273.305 108.633 289.918C104.812 310.251 99.212 316.476 95.1865 318.117C94.3286 318.475 93.4093 318.661 92.4802 318.665Z" fill="#E6E6E6" fill-opacity="1.000000" fill-rule="nonzero"/>
			<path id="Vector" d="M287.838 161.765L203.062 161.765C198.059 161.758 193.213 160.009 189.352 156.818C185.492 153.626 182.856 149.189 181.895 144.266L172.617 96.3718C172.411 95.3116 172.424 94.2204 172.655 93.1654C172.886 92.1105 173.33 91.1142 173.96 90.2382C174.591 89.3621 175.393 88.6249 176.318 88.0721C177.244 87.5192 178.272 87.1624 179.34 87.0238C224.055 81.2955 268.331 81.2858 310.94 86.994C311.993 87.1378 313.006 87.4939 313.919 88.041C314.831 88.588 315.623 89.3147 316.248 90.1771C316.872 91.0395 317.317 92.0198 317.553 93.059C317.79 94.0981 317.814 95.1745 317.625 96.2233L309.06 143.97C308.168 148.962 305.554 153.481 301.674 156.734C297.793 159.987 292.896 161.768 287.838 161.765Z" fill="#E6E6E6" fill-opacity="1.000000" fill-rule="nonzero"/>
			<path id="Vector" d="M399.197 318.666C398.267 318.662 397.347 318.475 396.488 318.117C392.463 316.476 386.863 310.251 383.042 289.918C379.921 273.305 370.346 248.195 357.429 222.747C345 198.259 332.51 179.407 324.835 173.548C324.796 173.521 319.914 170.087 316.141 163.207C312.665 156.868 309.436 146.219 313.782 131.476L313.788 130.923L321.667 96.6959L321.685 96.663C321.733 96.5775 326.586 88.1113 335.555 88.1113C342.1 88.1113 367.161 94.051 381.517 97.5916C383.859 98.1747 386.033 99.3013 387.862 100.881C389.691 102.46 391.124 104.448 392.047 106.685C399.011 123.63 416.087 167.817 424.234 212.023C428.83 236.957 429.882 258.168 427.362 275.067C424.311 295.525 415.974 309.874 402.582 317.716C401.567 318.35 400.392 318.68 399.197 318.666Z" fill="#E6E6E6" fill-opacity="1.000000" fill-rule="nonzero"/>
			<path id="Vector" d="M208.586 198.855C208.586 210.186 199.425 219.372 188.124 219.372C176.823 219.372 167.662 210.186 167.662 198.855C167.662 187.523 176.823 178.337 188.124 178.337C199.425 178.337 208.586 187.523 208.586 198.855Z" fill="#03183F" fill-opacity="1.000000" fill-rule="evenodd"/>
			<path id="Vector" d="M201.766 198.855C201.766 206.409 195.658 212.533 188.124 212.533C180.59 212.533 174.483 206.409 174.483 198.855C174.483 191.3 180.59 185.176 188.124 185.176C195.658 185.176 201.766 191.3 201.766 198.855Z" fill="#E6E6E6" fill-opacity="1.000000" fill-rule="evenodd"/>
			<path id="Vector" d="M322.963 198.855C322.963 210.186 313.802 219.372 302.501 219.372C291.2 219.372 282.039 210.186 282.039 198.855C282.039 187.523 291.2 178.337 302.501 178.337C313.802 178.337 322.963 187.523 322.963 198.855Z" fill="#03183F" fill-opacity="1.000000" fill-rule="evenodd"/>
			<path id="Vector" d="M316.143 198.855C316.143 206.409 310.035 212.533 302.501 212.533C294.967 212.533 288.86 206.409 288.86 198.855C288.86 191.3 294.967 185.176 302.501 185.176C310.035 185.176 316.143 191.3 316.143 198.855Z" fill="#E6E6E6" fill-opacity="1.000000" fill-rule="evenodd"/>
			<path id="Vector" d="M234.295 172.55C234.295 173.421 233.59 174.128 232.721 174.128C231.852 174.128 231.147 173.421 231.147 172.55C231.147 171.678 231.852 170.971 232.721 170.971C233.59 170.971 234.295 171.678 234.295 172.55Z" fill="#E6E6E6" fill-opacity="1.000000" fill-rule="evenodd"/>
			<path id="Vector" d="M241.115 172.55C241.115 173.421 240.411 174.128 239.541 174.128C238.672 174.128 237.967 173.421 237.967 172.55C237.967 171.678 238.672 170.971 239.541 170.971C240.411 170.971 241.115 171.678 241.115 172.55Z" fill="#E6E6E6" fill-opacity="1.000000" fill-rule="evenodd"/>
			<path id="Vector" d="M237.967 178.337C237.967 179.208 237.263 179.915 236.393 179.915C235.524 179.915 234.819 179.208 234.819 178.337C234.819 177.465 235.524 176.759 236.393 176.759C237.263 176.759 237.967 177.465 237.967 178.337Z" fill="#E6E6E6" fill-opacity="1.000000" fill-rule="evenodd"/>
			<path id="Vector" d="M244.263 178.337C244.263 179.208 243.559 179.915 242.689 179.915C241.82 179.915 241.115 179.208 241.115 178.337C241.115 177.465 241.82 176.759 242.689 176.759C243.559 176.759 244.263 177.465 244.263 178.337Z" fill="#E6E6E6" fill-opacity="1.000000" fill-rule="evenodd"/>
			<path id="Vector" d="M250.559 178.337C250.559 179.208 249.855 179.915 248.985 179.915C248.116 179.915 247.411 179.208 247.411 178.337C247.411 177.465 248.116 176.759 248.985 176.759C249.855 176.759 250.559 177.465 250.559 178.337Z" fill="#E6E6E6" fill-opacity="1.000000" fill-rule="evenodd"/>
			<path id="Vector" d="M256.855 178.337C256.855 179.208 256.151 179.915 255.281 179.915C254.412 179.915 253.707 179.208 253.707 178.337C253.707 177.465 254.412 176.759 255.281 176.759C256.151 176.759 256.855 177.465 256.855 178.337Z" fill="#E6E6E6" fill-opacity="1.000000" fill-rule="evenodd"/>
			<path id="Vector" d="M247.936 172.55C247.936 173.421 247.231 174.128 246.362 174.128C245.493 174.128 244.788 173.421 244.788 172.55C244.788 171.678 245.493 170.971 246.362 170.971C247.231 170.971 247.936 171.678 247.936 172.55Z" fill="#E6E6E6" fill-opacity="1.000000" fill-rule="evenodd"/>
			<path id="Vector" d="M254.757 172.55C254.757 173.421 254.052 174.128 253.183 174.128C252.313 174.128 251.609 173.421 251.609 172.55C251.609 171.678 252.313 170.971 253.183 170.971C254.052 170.971 254.757 171.678 254.757 172.55Z" fill="#E6E6E6" fill-opacity="1.000000" fill-rule="evenodd"/>
			<path id="Vector" d="M261.577 172.55C261.577 173.421 260.873 174.128 260.003 174.128C259.134 174.128 258.429 173.421 258.429 172.55C258.429 171.678 259.134 170.971 260.003 170.971C260.873 170.971 261.577 171.678 261.577 172.55Z" fill="#E6E6E6" fill-opacity="1.000000" fill-rule="evenodd"/>
			<path id="Vector" d="M252.658 221.214L239.017 221.214C238.391 221.214 237.79 220.964 237.347 220.52C236.905 220.076 236.656 219.474 236.656 218.846C236.656 218.218 236.905 217.616 237.347 217.172C237.79 216.728 238.391 216.479 239.017 216.479L252.658 216.479C253.284 216.479 253.885 216.728 254.328 217.172C254.77 217.616 255.019 218.218 255.019 218.846C255.019 219.474 254.77 220.076 254.328 220.52C253.885 220.964 253.284 221.214 252.658 221.214Z" fill="#E6E6E6" fill-opacity="1.000000" fill-rule="nonzero"/>
			<path id="Vector" d="M162.334 118.302C161.453 118.3 160.599 118 159.91 117.451C159.22 116.902 158.735 116.136 158.533 115.277L156.441 106.371C156.204 105.359 156.378 104.294 156.924 103.41C157.47 102.526 158.344 101.896 159.353 101.657C160.362 101.419 161.425 101.592 162.307 102.139C163.189 102.685 163.819 103.561 164.057 104.572L166.149 113.478C166.284 114.055 166.287 114.654 166.158 115.232C166.029 115.81 165.771 116.351 165.404 116.815C165.037 117.279 164.57 117.653 164.039 117.911C163.507 118.169 162.924 118.302 162.334 118.302Z" fill="#03183F" fill-opacity="1.000000" fill-rule="nonzero"/>
			<path id="Vector" d="M329.866 117.776C329.275 117.776 328.693 117.642 328.161 117.385C327.629 117.127 327.162 116.753 326.795 116.289C326.429 115.825 326.171 115.284 326.042 114.706C325.913 114.128 325.916 113.529 326.05 112.952L328.142 104.046C328.381 103.034 329.011 102.159 329.893 101.612C330.775 101.066 331.837 100.893 332.847 101.131C333.856 101.37 334.73 102 335.276 102.884C335.822 103.768 335.995 104.833 335.759 105.845L333.667 114.751C333.464 115.61 332.979 116.376 332.29 116.925C331.6 117.474 330.746 117.773 329.866 117.776Z" fill="#03183F" fill-opacity="1.000000" fill-rule="nonzero"/>
			<path id="Vector" d="M133.469 144.589C132.182 144.59 130.925 144.192 129.871 143.451L125.48 140.369C124.654 139.788 123.979 139.017 123.513 138.12C123.047 137.223 122.804 136.226 122.803 135.215L122.803 125.775C122.806 123.879 123.558 122.062 124.894 120.721C126.231 119.381 128.043 118.627 129.934 118.625L136.66 118.625C138.55 118.627 140.363 119.381 141.699 120.721C143.036 122.062 143.788 123.879 143.79 125.775L143.79 135.307C143.788 136.293 143.556 137.264 143.113 138.143C142.67 139.023 142.028 139.786 141.237 140.372L137.191 143.362C136.113 144.159 134.809 144.59 133.469 144.589Z" fill="#03183F" fill-opacity="1.000000" fill-rule="nonzero"/>
			<path id="Vector" d="M136.66 179.126L129.934 179.126C128.043 179.124 126.231 178.37 124.894 177.029C123.558 175.689 122.806 173.872 122.803 171.976L122.803 162.536C122.804 161.525 123.047 160.528 123.513 159.631C123.979 158.734 124.654 157.962 125.48 157.382L129.871 154.299C130.947 153.544 132.232 153.146 133.545 153.162C134.859 153.178 136.134 153.607 137.191 154.389L141.237 157.379C142.028 157.965 142.67 158.728 143.113 159.607C143.556 160.487 143.788 161.458 143.79 162.443L143.79 171.976C143.788 173.872 143.036 175.689 141.699 177.029C140.363 178.37 138.55 179.124 136.66 179.126Z" fill="#03183F" fill-opacity="1.000000" fill-rule="nonzero"/>
			<path id="Vector" d="M157.646 159.397L148.232 159.397C147.223 159.397 146.229 159.153 145.335 158.686C144.44 158.219 143.671 157.542 143.092 156.714L140.018 152.31C139.264 151.232 138.867 149.943 138.883 148.626C138.899 147.309 139.327 146.03 140.107 144.971L143.089 140.913C143.673 140.121 144.434 139.477 145.311 139.032C146.188 138.588 147.157 138.355 148.14 138.354L157.646 138.354C159.537 138.356 161.349 139.11 162.686 140.45C164.023 141.79 164.775 143.608 164.777 145.503L164.777 152.248C164.775 154.143 164.023 155.961 162.686 157.301C161.349 158.641 159.537 159.395 157.646 159.397Z" fill="#03183F" fill-opacity="1.000000" fill-rule="nonzero"/>
			<path id="Vector" d="M117.837 159.397L108.423 159.397C106.532 159.395 104.72 158.641 103.383 157.301C102.046 155.961 101.294 154.143 101.292 152.248L101.292 145.503C101.294 143.608 102.046 141.79 103.383 140.45C104.72 139.11 106.532 138.356 108.423 138.354L117.929 138.354C118.912 138.355 119.881 138.588 120.758 139.032C121.635 139.477 122.396 140.121 122.98 140.913L125.962 144.971C126.742 146.03 127.17 147.309 127.186 148.626C127.202 149.943 126.805 151.232 126.051 152.31L122.977 156.714C122.398 157.542 121.629 158.219 120.734 158.686C119.839 159.153 118.846 159.397 117.837 159.397Z" fill="#03183F" fill-opacity="1.000000" fill-rule="nonzero"/>
			<path id="Vector" d="M370.708 122.045C370.708 128.727 365.305 134.145 358.641 134.145C351.976 134.145 346.573 128.727 346.573 122.045C346.573 115.362 351.976 109.944 358.641 109.944C365.305 109.944 370.708 115.362 370.708 122.045Z" fill="#03183F" fill-opacity="1.000000" fill-rule="evenodd"/>
			<path id="Vector" d="M397.466 149.928C397.466 156.61 392.063 162.028 385.398 162.028C378.734 162.028 373.331 156.61 373.331 149.928C373.331 143.245 378.734 137.827 385.398 137.827C392.063 137.827 397.466 143.245 397.466 149.928Z" fill="#03183F" fill-opacity="1.000000" fill-rule="evenodd"/>
			<path id="Vector" d="M370.708 176.233C370.708 182.915 365.305 188.333 358.641 188.333C351.976 188.333 346.573 182.915 346.573 176.233C346.573 169.55 351.976 164.132 358.641 164.132C365.305 164.132 370.708 169.55 370.708 176.233Z" fill="#03183F" fill-opacity="1.000000" fill-rule="evenodd"/>
			<path id="Vector" d="M343.95 149.401C343.95 156.084 338.547 161.502 331.883 161.502C325.218 161.502 319.815 156.084 319.815 149.401C319.815 142.719 325.218 137.301 331.883 137.301C338.547 137.301 343.95 142.719 343.95 149.401Z" fill="#03183F" fill-opacity="1.000000" fill-rule="evenodd"/>
			<path id="Vector" d="M385.398 157.819C383.842 157.819 382.32 157.356 381.026 156.489C379.732 155.622 378.723 154.389 378.128 152.948C377.532 151.505 377.376 149.919 377.68 148.388C377.983 146.857 378.733 145.451 379.833 144.347C380.934 143.244 382.336 142.492 383.863 142.188C385.39 141.883 386.972 142.04 388.41 142.637C389.848 143.234 391.077 144.246 391.942 145.543C392.807 146.841 393.268 148.367 393.268 149.928C393.266 152.02 392.436 154.026 390.961 155.505C389.485 156.984 387.485 157.817 385.398 157.819ZM385.398 143.088C384.049 143.088 382.731 143.489 381.609 144.241C380.487 144.992 379.613 146.061 379.097 147.31C378.581 148.56 378.446 149.935 378.709 151.262C378.972 152.589 379.622 153.807 380.576 154.764C381.529 155.72 382.745 156.372 384.068 156.635C385.391 156.899 386.762 156.764 388.009 156.246C389.255 155.729 390.32 154.852 391.07 153.727C391.819 152.603 392.219 151.28 392.219 149.928C392.217 148.114 391.498 146.376 390.219 145.094C388.94 143.812 387.207 143.09 385.398 143.088Z" fill="#E6E6E6" fill-opacity="1.000000" fill-rule="nonzero"/>
			<path id="Vector" d="M367.073 127.915L351.257 127.691L359.359 114.069L367.073 127.915ZM353.089 126.665L365.271 126.837L359.329 116.173L353.089 126.665Z" fill="#E6E6E6" fill-opacity="1.000000" fill-rule="nonzero"/>
			<path id="Vector" d="M338.179 155.715L325.587 155.715L325.587 143.088L338.179 143.088L338.179 155.715ZM326.636 154.662L337.129 154.662L337.129 144.141L326.636 144.141L326.636 154.662Z" fill="#E6E6E6" fill-opacity="1.000000" fill-rule="nonzero"/>
			<path id="Vector" d="M365.152 181.665L359.384 175.891L364.471 170.8L363.729 170.055L358.641 175.148L353.552 170.055L352.811 170.8L357.898 175.891L352.129 181.665L352.87 182.41L358.641 176.635L364.411 182.41L365.152 181.665Z" fill="#E6E6E6" fill-opacity="1.000000" fill-rule="nonzero"/>
			<path id="Vector" d="M133.452 38.8469C131.895 38.8469 130.374 38.384 129.079 37.5169C127.785 36.6498 126.776 35.4173 126.181 33.9753C125.585 32.5334 125.429 30.9467 125.733 29.4159C126.037 27.8851 126.786 26.4789 127.887 25.3753C128.987 24.2717 130.39 23.5201 131.916 23.2156C133.443 22.9111 135.025 23.0674 136.463 23.6647C137.901 24.262 139.131 25.2734 139.995 26.5712C140.86 27.8689 141.322 29.3947 141.322 30.9554C141.319 33.0476 140.489 35.0535 139.014 36.5329C137.539 38.0123 135.538 38.8445 133.452 38.8469ZM133.452 24.1161C132.103 24.1161 130.784 24.5173 129.662 25.2688C128.541 26.0203 127.667 27.0884 127.15 28.3381C126.634 29.5878 126.499 30.963 126.762 32.2897C127.025 33.6164 127.675 34.835 128.629 35.7915C129.583 36.748 130.798 37.3994 132.121 37.6633C133.444 37.9271 134.816 37.7917 136.062 37.274C137.308 36.7564 138.373 35.8798 139.123 34.7551C139.872 33.6304 140.272 32.3081 140.272 30.9554C140.27 29.1422 139.551 27.4037 138.272 26.1215C136.994 24.8394 135.26 24.1182 133.452 24.1161Z" fill="#E6E6E6" fill-opacity="1.000000" fill-rule="nonzero"/>
			<path id="Vector" d="M115.651 25.7784L99.8352 25.5541L107.937 11.9319L115.651 25.7784ZM101.667 24.5276L113.849 24.7005L107.907 14.0363L101.667 24.5276Z" fill="#E6E6E6" fill-opacity="1.000000" fill-rule="nonzero"/>
			<path id="Vector" d="M92.3729 44.9713L79.7809 44.9713L79.7809 32.345L92.3729 32.345L92.3729 44.9713ZM80.8302 43.9191L91.3235 43.9191L91.3235 33.3972L80.8302 33.3972L80.8302 43.9191Z" fill="#E6E6E6" fill-opacity="1.000000" fill-rule="nonzero"/>
			<path id="Vector" d="M103.761 68.4795L97.9927 62.7061L103.08 57.6151L102.339 56.8701L97.2498 61.9627L92.1611 56.8701L91.4197 57.6151L96.5068 62.7061L90.7382 68.4795L91.4795 69.2244L97.2498 63.4495L103.02 69.2244L103.761 68.4795Z" fill="#E6E6E6" fill-opacity="1.000000" fill-rule="nonzero"/>
			<g opacity="0.200000">
				<path id="Vector" d="M459.114 181.23L438.749 196.599L461.737 186.491L459.114 181.23Z" fill="#000000" fill-opacity="1.000000" fill-rule="nonzero"/>
			</g>
			<path id="Vector" d="M82.4044 200.17L56.6958 201.222L53.5478 183.861L75.5837 177.021L82.4044 200.17Z" fill="#A0616A" fill-opacity="1.000000" fill-rule="nonzero"/>
			<path id="Vector" d="M72.9523 157.621L67.2182 151.767L74.249 140.987L86.2827 120.901C85.8895 120.036 85.7676 119.071 85.933 118.135C86.0984 117.199 86.5435 116.335 87.2092 115.658C87.8749 114.98 88.7299 114.522 89.6613 114.343C90.5925 114.163 91.5562 114.272 92.4246 114.653C93.2931 115.035 94.0255 115.672 94.525 116.481C95.0245 117.289 95.2675 118.23 95.2219 119.18C95.1763 120.13 94.8441 121.043 94.2695 121.8C93.6948 122.556 92.9047 123.12 92.0037 123.416L82.0709 144.859L72.9523 157.621Z" fill="#A0616A" fill-opacity="1.000000" fill-rule="nonzero"/>
			<path id="Vector" d="M66.6003 170.987C65.9271 172.032 64.9678 172.861 63.8372 173.375C62.7065 173.888 61.4524 174.064 60.2246 173.881C59.056 173.743 57.9532 173.266 57.0514 172.508C56.1497 171.75 55.4882 170.744 55.1484 169.615C54.8981 168.813 54.8252 167.966 54.9348 167.133C55.0444 166.3 55.3339 165.501 55.7831 164.792C59.6191 158.308 66.6939 149.745 66.7648 149.659L66.8775 149.523L78.8101 152.115L66.6003 170.987Z" fill="#9C0332" fill-opacity="1.000000" fill-rule="nonzero"/>
			<path id="Vector" d="M76.2768 314.486L83.4064 314.485L86.7979 286.91L76.2752 286.91L76.2768 314.486Z" fill="#A0616A" fill-opacity="1.000000" fill-rule="nonzero"/>
			<path id="Vector" d="M74.4579 312.152L88.4989 312.151L88.4995 312.151C90.8726 312.151 93.1485 313.097 94.8265 314.779C96.5046 316.462 97.4474 318.744 97.4475 321.123L97.4475 321.415L74.4583 321.416L74.4579 312.152Z" fill="#03183F" fill-opacity="1.000000" fill-rule="nonzero"/>
			<path id="Vector" d="M20.762 311.391L27.8114 312.459L35.2764 285.702L26.0349 284.125L20.762 311.391Z" fill="#A0616A" fill-opacity="1.000000" fill-rule="nonzero"/>
			<path id="Vector" d="M19.3116 308.811L33.195 310.915L33.1956 310.915C35.542 311.271 37.6514 312.547 39.0598 314.462C40.4681 316.377 41.0601 318.775 40.7054 321.128L40.662 321.416L17.931 317.971L19.3116 308.811Z" fill="#03183F" fill-opacity="1.000000" fill-rule="nonzero"/>
			<path id="Vector" d="M55.6464 195.961L80.3056 191.752L87.9355 207.523L88.2263 310.447L74.6925 310.362L69.0351 227.058L32.9788 304.032L18.44 302.283L50.1346 219.768C50.1346 219.768 48.39 205.19 53.9147 197.901L55.6464 195.961Z" fill="#03183F" fill-opacity="1.000000" fill-rule="nonzero"/>
			<path id="Vector" d="M46.4918 164.89C46.1149 163.755 46.0749 162.535 46.3766 161.377C46.6782 160.219 47.3087 159.174 48.1912 158.369L51.6957 155.175L61.5757 153.506L67.7532 152.38L77.6823 181.23L53.5671 192.34C51.4507 191.882 50.6053 190.721 51.8367 188.413L46.4918 164.89Z" fill="#9C0332" fill-opacity="1.000000" fill-rule="nonzero"/>
			<path id="Vector" d="M68.6237 174.625L75.5221 170.211L84.5856 179.338L101.694 195.298C102.62 195.092 103.586 195.172 104.466 195.527C105.345 195.883 106.096 196.499 106.619 197.292C107.142 198.085 107.412 199.019 107.395 199.969C107.377 200.92 107.072 201.843 106.52 202.616C105.968 203.389 105.194 203.976 104.302 204.299C103.41 204.622 102.442 204.665 101.524 204.424C100.607 204.183 99.7845 203.668 99.1654 202.948C98.5463 202.228 98.1597 201.336 98.057 200.391L79.1892 186.211L68.6237 174.625Z" fill="#A0616A" fill-opacity="1.000000" fill-rule="nonzero"/>
			<path id="Vector" d="M56.8967 165.628C56.0159 164.751 55.4056 163.639 55.1386 162.424C54.8716 161.208 54.9594 159.942 55.3914 158.775C55.7683 157.657 56.4624 156.674 57.3884 155.947C58.3145 155.219 59.4322 154.778 60.6046 154.678C61.4385 154.598 62.2799 154.702 63.0699 154.981C63.8599 155.261 64.5795 155.71 65.1785 156.298C70.7116 161.402 77.6036 170.115 77.6724 170.202L77.7818 170.34L72.7842 181.51L56.8967 165.628Z" fill="#9C0332" fill-opacity="1.000000" fill-rule="nonzero"/>
			<path id="Vector" d="M68.085 139.121C68.085 145.127 63.2294 149.996 57.2397 149.996C51.2499 149.996 46.3943 145.127 46.3943 139.121C46.3943 133.115 51.2499 128.246 57.2397 128.246C63.2294 128.246 68.085 133.115 68.085 139.121Z" fill="#A0616A" fill-opacity="1.000000" fill-rule="evenodd"/>
			<path id="Vector" d="M48.4592 154.614C46.7773 154.613 45.0971 154.511 43.4277 154.306L43.1989 154.278L41.4519 144.768C40.711 140.737 41.5371 136.574 43.7606 133.134C45.9841 129.694 49.4363 127.238 53.4088 126.27C53.6738 126.203 53.9523 126.21 54.2135 126.291C54.4747 126.372 54.7086 126.524 54.8893 126.73L55.306 126.584C56.9011 126.026 58.5902 125.789 60.2768 125.886C61.9634 125.983 63.6144 126.412 65.1357 127.148C66.6569 127.885 68.0186 128.915 69.1429 130.179C70.2672 131.444 71.1322 132.918 71.6884 134.517L71.7916 134.814L69.0113 135.786C68.145 136.089 67.3569 136.582 66.7044 137.229C66.0519 137.875 65.5513 138.66 65.2391 139.525C64.9269 140.39 64.811 141.314 64.8998 142.23C64.9885 143.145 65.2797 144.03 65.7521 144.818L68.5948 149.564L68.2921 149.716C62.1566 152.888 55.3621 154.566 48.4592 154.614Z" fill="#03183F" fill-opacity="1.000000" fill-rule="nonzero"/>
			<path id="Vector" d="M421.055 200.122C421.18 199.514 421.437 198.941 421.807 198.443C422.178 197.945 422.652 197.535 423.198 197.241C423.743 196.948 424.346 196.777 424.964 196.742C425.583 196.708 426.201 196.809 426.776 197.04L436.64 185.641L438.749 193.192L429.059 202.859C428.609 203.802 427.829 204.546 426.868 204.951C425.907 205.356 424.831 205.393 423.844 205.055C422.858 204.718 422.029 204.029 421.515 203.12C421 202.211 420.837 201.144 421.055 200.122L421.055 200.122Z" fill="#FFB6B6" fill-opacity="1.000000" fill-rule="nonzero"/>
			<path id="f348f81f-b961-4ae4-bc6b-758f6acfb12a" d="M465.07 150.006L469.11 149.787L469.719 152.362C469.719 152.362 469.659 155.66 465.975 162.516C462.29 169.371 433.742 199.892 433.742 199.892L427.56 192.857L442.841 177.073L452.095 160.531L465.07 150.006Z" fill="#9C0332" fill-opacity="1.000000" fill-rule="nonzero"/>
			<path id="Path 2960" d="M4.65424 322L484.346 322C484.519 322 484.686 321.931 484.808 321.808C484.931 321.685 485 321.518 485 321.344C485 321.17 484.931 321.003 484.808 320.88C484.686 320.757 484.519 320.688 484.346 320.688L4.65424 320.688C4.48071 320.688 4.31433 320.757 4.19165 320.88C4.06891 321.003 4 321.17 4 321.344C4 321.518 4.06891 321.685 4.19165 321.808C4.31433 321.931 4.48071 322 4.65424 322Z" fill="#3F3D56" fill-opacity="0.400000" fill-rule="nonzero"/>
		</g>
	</g>
</svg>
